<?xml version="1.0" encoding="utf-8"?>
<!-- Generator: Adobe Illustrator 16.0.0, SVG Export Plug-In . SVG Version: 6.00 Build 0)  -->
<!DOCTYPE svg PUBLIC "-//W3C//DTD SVG 1.1//EN" "http://www.w3.org/Graphics/SVG/1.1/DTD/svg11.dtd">
<svg version="1.1" id="Layer_1" xmlns="http://www.w3.org/2000/svg" xmlns:xlink="http://www.w3.org/1999/xlink" x="0px" y="0px"
	 width="360px" height="640px" viewBox="0 0 360 640" enable-background="new 0 0 360 640" xml:space="preserve">
<g>
	<path fill="#FFDA96" d="M108.14,211.437c0,9.207-7.46,16.669-16.663,16.669c-9.202,0-16.662-7.462-16.662-16.669
		c0-9.201,7.46-16.663,16.662-16.663C100.68,194.774,108.14,202.235,108.14,211.437"/>
	<path fill="#FFDA96" d="M283.274,211.437c0,9.207-7.46,16.669-16.663,16.669c-9.204,0-16.66-7.462-16.66-16.669
		c0-9.201,7.456-16.663,16.66-16.663C275.814,194.774,283.274,202.235,283.274,211.437"/>
	<path fill="#29ABE2" d="M244.605,313.442c-2.496-2.888-5.675-5.309-9.382-6.757c-3.678-1.435-7.56-1.875-10.84-1.135
		c-1.624,0.3-3.034,0.92-4.22,1.698c-1.183,0.746-2.135,1.662-2.883,2.727c-1.491,2.078-2.066,4.449-2.102,6.962
		c0,5.021,1.562,9.651,1.272,13.102c-0.272,3.432-1.322,5.088,0.386,6.953l0.216,0.275c0.145,0.203,0.362,0.395,0.642,0.821
		c0.558,0.793,1.406,1.945,2.383,3.771c2,3.504,4.413,9.389,6.395,15.78c1.977,6.413,3.586,13.242,4.645,18.442
		c1.074,5.203,1.668,8.753,1.668,8.753l35.858-6.305c0,0-0.65-3.909-1.87-9.817c-1.209-5.904-3.048-13.814-5.525-21.859
		c-2.497-8.043-5.738-16.259-9.324-22.642c-1.715-3.171-3.584-5.89-4.96-7.779c-0.656-0.939-1.335-1.708-1.723-2.211
		C244.824,313.713,244.605,313.442,244.605,313.442"/>
	<path fill="#FFDA96" d="M277.209,482.437l-0.187-8.785c-0.843-29.564-2.685-59.092-7.358-89.044l-1.021-6.077l-35.86,6.305
		l0.926,5.505c4.29,27.379,6.123,55.868,6.918,84.257l0.182,8.443c0.171,9.822,8.243,17.738,18.291,17.899
		C269.16,501.104,277.391,492.717,277.209,482.437"/>
	<polygon fill="#F2F2F2" points="231.471,377.811 231.028,375.651 266.674,368.229 267.172,370.673 	"/>
	<path fill="#29ABE2" d="M140.017,336.992c1.708-1.865,0.664-3.521,0.385-6.953c-0.287-3.448,1.272-8.081,1.272-13.104
		c-0.035-2.511-0.608-4.882-2.103-6.962c-0.746-1.062-1.7-1.979-2.881-2.723c-1.188-0.778-2.596-1.402-4.22-1.7
		c-3.278-0.74-7.16-0.298-10.838,1.135c-3.708,1.448-6.887,3.867-9.382,6.757c0,0-0.219,0.271-0.638,0.779
		c-0.388,0.503-1.066,1.271-1.721,2.211c-1.378,1.89-3.247,4.608-4.961,7.779c-3.588,6.383-6.83,14.599-9.326,22.644
		c-2.477,8.043-4.313,15.955-5.524,21.857c-1.22,5.908-1.869,9.819-1.869,9.819l35.858,6.303c0,0,0.593-3.55,1.665-8.751
		c1.059-5.202,2.668-12.031,4.648-18.442c1.978-6.394,4.395-12.278,6.392-15.78c0.977-1.827,1.826-2.98,2.382-3.772
		c0.28-0.429,0.497-0.616,0.641-0.821L140.017,336.992z"/>
	<path fill="#FFDA96" d="M116.046,483.04l0.181-8.443c0.796-28.389,2.628-56.878,6.918-84.257l0.925-5.505l-35.858-6.303
		l-1.02,6.075c-4.674,29.95-6.517,59.479-7.362,89.044l-0.184,8.785c-0.181,10.28,8.05,18.665,18.11,18.503
		C107.802,500.778,115.876,492.862,116.046,483.04"/>
	<polygon fill="#F2F2F2" points="89.683,370.673 90.182,368.229 125.828,375.651 125.386,377.811 	"/>
	<path fill="#29ABE2" d="M228.797,304.597c-11.997-2.677-30.51-5.913-49.778-5.918c-19.291,0-37.867,3.246-49.898,5.929
		c-7.602,1.683-13.659,9.779-13.659,17.558v126.903h126.99V322.166C242.452,314.387,236.396,306.287,228.797,304.597"/>
	<path fill="#FFDA96" d="M205.264,286.625l1.962,17.071c0,0-4.928,18.695-28.269,18.695c-23.35,0-28.271-18.695-28.271-18.695
		l1.964-17.071H205.264z"/>
	<path fill="#F2F2F2" d="M178.957,328.265c22.037,0,31.845-15.092,33.951-23.07l0.279-1.072l-0.293-2.567
		c-0.793-0.124-1.602-0.25-2.407-0.37l0.318,2.766l-0.171,0.647c-1.944,7.369-11.073,21.317-31.678,21.317
		c-20.616,0-29.738-13.948-31.68-21.317l-0.171-0.647l0.319-2.757c-0.812,0.124-1.619,0.243-2.405,0.374l-0.296,2.554l0.28,1.068
		C147.106,313.173,156.907,328.265,178.957,328.265"/>
	<path fill="#333333" d="M115.463,449.073l0.606,154.18l51.631,8.426l-0.134-124.975c0-5.188,4.21-9.398,9.396-9.398h4.022
		c5.186,0,9.396,4.211,9.396,9.398l0.041,124.975l51.624-8.426l0.404-154.18H115.463z"/>
	<polygon fill="#F7931E" points="167.695,621.327 111.211,621.327 111.211,611.894 116.07,603.255 167.695,611.679 	"/>
	<polygon fill="#F7931E" points="190.422,621.327 246.907,621.327 246.907,611.894 242.052,603.255 190.422,611.679 	"/>
	<path fill="#EBC580" d="M205.479,293.62c0,0-8.388,4.081-26.432,4.081c-18.048,0-26.634-4.113-26.634-4.113
		s14.275-3.005,26.634-3.005C191.401,290.583,205.479,293.62,205.479,293.62"/>
	<path fill="#FFDA96" d="M202.292,72.01h-46.494c-63.38,0-64.32,117.943-64.32,117.943v31.782c0,40.217,32.604,72.814,72.818,72.814
		h29.5c40.213,0,72.813-32.597,72.813-72.814l-0.004-31.66C266.605,190.076,265.673,72.01,202.292,72.01"/>
	<path fill="#8E6C59" d="M143.714,213.345c0,5.017-4.062,9.073-9.073,9.073c-5.011,0-9.07-4.057-9.07-9.073v-3.935
		c0-5.015,4.059-9.074,9.07-9.074c5.011,0,9.073,4.06,9.073,9.074V213.345z"/>
	<path fill="#8E6C59" d="M234.834,213.345c0,5.017-4.062,9.073-9.073,9.073c-5.013,0-9.069-4.057-9.069-9.073v-3.935
		c0-5.015,4.057-9.074,9.069-9.074c5.011,0,9.073,4.06,9.073,9.074V213.345z"/>
	<g opacity="0.5">
		<g>
			<defs>
				<rect id="SVGID_1_" x="89.319" y="192.403" width="175.151" height="62.77"/>
			</defs>
			<clipPath id="SVGID_2_">
				<use xlink:href="#SVGID_1_"  overflow="visible"/>
			</clipPath>
			<path clip-path="url(#SVGID_2_)" fill="#CCCCCC" d="M89.318,200.503l5.062,31.386l9.112,18.021l16.2,5.265l14.983-1.621
				l17.213-4.254l10.732-19.641l9.513-21.869l11.747-1.214l5.062,12.757l11.741,25.108l4.455,5.874l18.228,2.835l19.033,0.607
				l14.983-10.532l4.859-12.755l2.228-24.5l-3.849-7.896l-35.029-4.455l-16.807,1.214c0,0-18.02,4.657-18.223,5.264
				c-0.205,0.608-4.658,3.443-4.658,3.443l-12.959-0.2l-11.745-4.659l-20.047-6.275l-34.83,4.047L89.318,200.503z"/>
		</g>
	</g>
	<path fill="#A17650" d="M179.199,273.322c-20.91,0-29.114-2.396-29.453-2.5c-1.865-0.56-2.918-2.523-2.358-4.389
		c0.556-1.861,2.51-2.92,4.375-2.358c0.148,0.036,7.898,2.201,27.437,2.201c19.621,0,27.364-2.182,27.439-2.207
		c1.861-0.542,3.82,0.522,4.366,2.387c0.551,1.856-0.497,3.81-2.353,4.366C208.311,270.925,200.093,273.322,179.199,273.322"/>
	<path fill="#534741" d="M89.885,226.358c0,0-3.98-12.811-6.188-19.478c-2.207-6.663-2.639-44.748-2.639-51.843
		c0-7.101,0-32.333,3.979-37.22c0,0-2.251-11.038-2.251-14.887c0,0-8.264-14.153-12.117-22.72c0,0,12.117,8.267,16.229,9.435
		c0,0-7.964-11.815-10.907-17.141c0,0,10.907,10.345,14.457,12.421c0,0-2.946-6.491-2.642-9.74c0,0,5.629,10.654,15.362,15.667
		c0,0-2.38-10.039-8.871-17.437c0,0,5.885-1.473,7.661,1.471c0,0-0.866-12.116-5.582-18.308c0,0,9.734-2.38,15.926,2.943
		c0,0-11.514-9.435-18.005-12.116c0,0,12.681-0.563,20.385,7.093c0,0-8.27-9.433,1.471-12.716c0,0-2.384,5.623,4.717,7.091
		c0,0-5.883-9.431,2.684-17.696c0,0-4.156,11.208,5.321,18.302c0,0-1.77-8.867,9.132-13.892c0,0-5.322,6.487-3.851,14.498
		c0,0,2.382-12.116,11.814-13.892c0,0-7.661,7.661-6.186,16.532c0,0,10.645-14.196,0.301-28.953c0,0,12.121,0.914,16.535,8.569
		c0,0,1.771-6.489,3.547-7.096c0,0,2.382,5.625,5.322,7.398c0,0,1.471-2.377,0-5.622c0,0,4.109,3.545,4.109,6.234
		c0,0,7.403-2.079,9.783,2.028c2.338,4.157,12.375,8.267,21.855,8.873c0,0-11.51-13.591-27.175-13.591c0,0,8.562-4.715,23.627,5.021
		c0,0-5.32-6.791-8.27-8.565c0,0,12.383,0.605,25.106,16.833c0,0,2.636-3.551-2.687-7.965c0,0,12.72,4.414,20.686,16.231
		c0,0-5.582-10.339-11.206-13.591c0,0,23.322,8.572,19.217,18.353c0,0,3.238,4.718,6.751,7.053
		c3.544,2.382,20.992,15.971,22.157,23.366c1.209,7.364,3.29,7.364,5.316,7.105c0,0,3.251-1.519,4.159-4.762
		c0,0,0.565,5.625-4.159,7.959c0,0-1.161,6.841,6.239,8.005c0,0,4.411,1.776,4.713,4.416c0,0-5.928-1.772-10.641-1.467
		c0,0,5.318,8.265,10.944,12.677c0,0,6.49,3.851-3.245,21.901c0,0-2.381,13.843-2.077,20.076c0.306,6.188,0,19.779,0,26.876
		c0,7.102,0.306,11.513-4.453,20.988c-4.721,9.442-8.829,13.286-9.133,17.402c-0.305,4.152,0.557,13.285-0.305,14.195
		c0,0-3.245-0.911-3.245-7.399c0-6.493,0-21.251-0.908-27.484c-0.863-6.188-2.644-16.536-6.191-23.627
		c-3.552-7.057-6.489-26.878-6.489-31.291c0-4.455-3.244-14.197-3.244-16.833c0-2.686-0.312-4.162-3.553-0.606
		c-3.24,3.545-30.724,5.019-45.483,2.38c-14.754-2.688-18.91,9.129-33.11,5.016c-14.148-4.153-19.472,0.871-26.269,1.778
		c-6.796,0.863-9.735,4.718-14.192,8.569c-4.415,3.804-2.946,10.344-10.599,14.455c-7.71,4.152-11.819,4.152-11.561,13.89
		c0.304,9.735,0,19.479-3.806,21.856c-3.854,2.382-6.235,10.949-6.796,15.666C90.748,223.76,92.309,228.695,89.885,226.358"/>
	<g opacity="0.1">
		<g>
			<defs>
				<rect id="SVGID_3_" x="110.831" y="61.901" width="132.042" height="76.775"/>
			</defs>
			<clipPath id="SVGID_4_">
				<use xlink:href="#SVGID_3_"  overflow="visible"/>
			</clipPath>
			<path clip-path="url(#SVGID_4_)" fill="#FFFFFF" d="M110.831,92.325c0,0,8.871,7.961,10.647,13.285
				c1.774,5.328,11.812,21.553,27.739,26.878c0,0-19.773-15.968-26.265-31.335c0,0,9.171,3.854,17.135,16.275
				c0,0,11.813,19.478,26.875,21.248c0,0-11.815-9.437-15.363-20.642c0,0-10.95-30.471-18.613-37.525c0,0-2.632,14.761,2.643,24.8
				c0,0-3.806-5.322-17.699-8.268C117.93,97.042,114.989,92.588,110.831,92.325"/>
			<path clip-path="url(#SVGID_4_)" fill="#FFFFFF" d="M141.866,78.74c0,0,7.095,8.261,7.653,16.832c0,0,1.779,25.405,15.369,33.062
				c0,0-6.796-8.869-6.796-15.664c0,0,4.713,18.909,21.552,23.626c0,0-11.21-8.825-12.985-14.453c0,0,4.714,7.097,10.343,9.177
				l-5.019-7.705c0,0,6.796,11.513,17.138,13.587c0,0-23.022-17.438-30.123-39.856c0,0,7.964,18.002,19.169,24.498
				c0,0-9.433-10.349-11.205-19.22c0,0,6.792,3.289,10.344,11.253c0,0,5.317,15.362,21.555,18.001c0,0-9.134-6.488-13.285-20.683
				c0,0-2.952-7.664-9.179-11.208c0,0,5.625,0.907,11.553,11.208c0,0,10.604,19.817,27.138,23.066c0,0-13.547-9.176-20.947-23.931
				c0,0,13.893,19.777,30.423,26.871c0,0-13.893-11.812-19.217-21.25c0,0,15.673,11.511,21.599,18.874
				c0,0-15.105-22.425-32.203-36.921l20.953,17.145c0,0-2.081-8.571-7.361-13.288c0,0,20.083,21.853,25.403,25.401
				c0,0-11.814-21.25-21.897-27.175c0,0,17.139,4.715,23.372,21.856c0,0-7.097-17.399,7.661-5.892c0,0-1.17-7.097-11.82-12.112
				c0,0-22.457-15.063-29.815-22.462c0,0,10.904,2.944,20.386,12.72c0,0-4.157-9.172-18.615-17.438c0,0-12.115-6.793-18.043-14.76
				c0,0,3.853,9.437,13.331,15.362c0,0-15.36-7.097-21.595-8.87c0,0,6.234,7.659,10.943,10.347c0,0-12.42-5.625-15.962-9.789
				c0,0-6.494-6.183-14.154-6.491c0,0,10.604,5.026,15.926,17.142c0,0-7.096-1.17-11.514-9.132c0,0-0.606,5.889,2.948,11.813
				c0,0-2.083,1.774-5.89-5.021c0,0-0.606,6.494,4.11,15.324c0,0-7.655-2.64-10.343-14.155c0,0-0.864,6.192,3.854,13.892
				C156.62,92.325,149.219,79.908,141.866,78.74"/>
		</g>
	</g>
	<path fill="#3A1659" d="M257.055,191.344c-11.612-0.637-36.935-1.156-48.163-0.111c-11.229,1.045-13.506,1.824-15.255,3.178
		c-1.748,1.349-2.521,3.418-5.71,3.902c-2.862,0.436-8.688,0.966-9.84,1.066c-1.159-0.101-6.985-0.631-9.843-1.066
		c-3.188-0.484-3.963-2.553-5.713-3.902c-1.75-1.354-4.022-2.133-15.253-3.178c-11.23-1.045-36.548-0.526-48.157,0.111
		c-11.613,0.637-19.935,3.94-19.935,3.94l0.643,14.438c0,0,1.424,0.648,3.729,1.214c2.304,0.567,7.319,19.142,10.888,28.586
		c3.568,9.444,8.889,13.074,17.193,15.633c16.684,3.174,32.728-0.922,37.574-2.797c4.846-1.871,8.231-7.011,11.5-12.817
		c3.265-5.807,9.249-20.981,11.136-24.823c1.387-2.838,4.633-3.854,6.239-4.19c1.602,0.336,4.845,1.352,6.238,4.19
		c1.882,3.841,7.866,19.016,11.136,24.823c3.269,5.807,6.652,10.947,11.498,12.817c4.848,1.875,20.89,5.971,37.572,2.797
		c8.305-2.56,13.625-6.189,17.192-15.633c3.57-9.444,8.583-28.019,10.887-28.586c2.307-0.565,3.729-1.214,3.729-1.214l0.643-14.438
		C276.98,195.284,268.661,191.981,257.055,191.344 M162.497,224.823c-3.432,11.211-6.871,19.6-13.465,22.951
		c-6.587,3.351-31.578,9.13-43.082,0.442c-2.276-1.734-8.889-8.734-10.09-22.383c-1.192-13.65-2.553-20.89,5.502-24.759
		c0,0,16.033-5.516,28.835-5.469c14.469,0.06,27.229,2.38,30.115,6.291C163.199,205.809,166.592,210.667,162.497,224.823
		 M260.307,225.833c-1.195,13.649-7.813,20.648-10.086,22.383c-11.506,8.688-36.502,2.909-43.086-0.442
		c-6.592-3.351-10.03-11.74-13.463-22.951c-4.096-14.156-0.703-19.014,2.185-22.927c2.884-3.91,15.646-6.231,30.117-6.291
		c12.8-0.046,28.833,5.469,28.833,5.469C262.86,204.943,261.504,212.183,260.307,225.833"/>
	<text transform="matrix(1 0 0 1 143.1655 424.6152)" fill="#FFFFFF" font-family="'LoveloLineLight'" font-size="93">N</text>
</g>
</svg>
